<svg xmlns="http://www.w3.org/2000/svg" version="1.1" xmlns:xlink="http://www.w3.org/1999/xlink" xmlns:svgjs="http://svgjs.dev/svgjs" width="2000" height="1500" viewBox="0 0 2000 1500"><rect width="2000" height="1500" fill="#ffffff"></rect><g transform="matrix(0.24900398406374502,0,0,0.24900398406374502,750.3281966291573,250.40485829959516)"><svg viewBox="0 0 123 247" data-background-color="#ffffff" preserveAspectRatio="xMidYMid meet" height="4016" width="2000" xmlns="http://www.w3.org/2000/svg" xmlns:xlink="http://www.w3.org/1999/xlink"><g id="tight-bounds" transform="matrix(1,0,0,1,0.16494068374419157,-0.09999999999999432)"><svg viewBox="0 0 122.67011863251159 247.2" height="247.2" width="122.67011863251159"><g><svg viewBox="0 0 321.93967162231763 648.7601684273964" height="247.2" width="122.67011863251159"><g transform="matrix(1,0,0,1,0,253.76599154643867)"><svg viewBox="0 0 321.93967162231763 394.99417688095775" height="394.99417688095775" width="321.93967162231763"><g id="textblocktransform"><svg viewBox="0 0 321.93967162231763 394.99417688095775" height="394.99417688095775" width="321.93967162231763" id="textblock"><g><svg viewBox="0 0 321.93967162231763 245.672304" height="245.672304" width="321.93967162231763"><g transform="matrix(1,0,0,1,0,0)"><svg width="321.93967162231763" viewBox="0 -34.95 45.8 34.95" height="245.672304" data-palette-color="#6575a8"><path d="M0-2.15L4.85-2.15 4.85-34.95 10.75-34.95 10.75-2.15 15.6-2.15 15.6 0 0 0 0-2.15ZM33.65-2.15L45.8-2.15 45.8 0 15.6 0 15.6-2.15 27.75-2.15 27.75-29.55 17.15-29.55 17.15-34.95 44.25-34.95 44.25-29.55 33.65-29.55 33.65-2.15Z" opacity="1" transform="matrix(1,0,0,1,0,0)" fill="#6575a8" class="wordmark-text-0" data-fill-palette-color="primary" id="text-0"></path></svg></g></svg></g><g transform="matrix(1,0,0,1,0,303.669638839104)"><svg viewBox="0 0 321.93967162231763 91.32453804185378" height="91.32453804185378" width="321.93967162231763"><g transform="matrix(1,0,0,1,0,0)"><svg width="321.93967162231763" viewBox="2.9 -37.95 136.23999999999998 38.650000000000006" height="91.32453804185378" data-palette-color="#6575a8"><path d="M38-36L36.6-28.2 24.3-28.2 19.35 0 10.3 0 15.25-28.2 2.9-28.2 4.3-36 38-36ZM44.7-24.75L44.7-24.75Q50.1-24.75 52.85-22.4L52.85-22.4Q55-20.55 55-17.25L55-17.25Q55-16.15 54.75-14.85L54.75-14.85 53.7-9Q52.75-3.7 49.27-1.5 45.8 0.7 40 0.7 34.2 0.7 31.5-1.5L31.5-1.5Q29.5-3.15 29.5-6.45L29.5-6.45Q29.5-7.6 29.75-9L29.75-9 30.8-14.85Q32.55-24.75 44.7-24.75ZM45.4-10.1L46.05-13.85Q46.15-14.35 46.15-15.13 46.15-15.9 45.5-16.85 44.85-17.8 43.22-17.8 41.6-17.8 40.5-16.73 39.4-15.65 39.1-13.85L39.1-13.85 38.45-10.1Q38.35-9.6 38.35-8.83 38.35-8.05 39-7.15 39.65-6.25 41.27-6.25 42.9-6.25 44-7.38 45.1-8.5 45.4-10.1L45.4-10.1ZM82.2-18.95L82.2-18.95Q82.2-17.25 81.62-15.65 81.05-14.05 80.5-13.3L80.5-13.3 79.95-12.6 72.4-12.6Q73.65-13.75 73.65-15.45L73.65-15.45Q73.65-16.35 73.07-16.93 72.5-17.5 71.5-17.5L71.5-17.5Q69.8-17.5 68.55-15.8L68.55-15.8 65.75 0 57.25 0 61.5-24.05 69.4-24.05 68.8-20.7Q71.65-24.75 75.7-24.75L75.7-24.75Q78.95-24.75 80.57-23.2 82.2-21.65 82.2-18.95ZM93.74 0.7L93.74 0.7Q83.34 0.7 83.34-6.5L83.34-6.5Q83.34-7.5 83.54-8.65L83.54-8.65 84.59-14.85Q85.39-19.65 88.97-22.2 92.54-24.75 98.04-24.8L98.04-24.8Q108.69-24.8 108.69-17.4L108.69-17.4Q108.69-15.8 108.32-14.53 107.94-13.25 107.54-12.8L107.54-12.8 107.14-12.3 98.64-12.3Q99.89-13.4 99.89-14.9L99.89-14.9Q99.89-17.6 97.19-17.6L97.19-17.6Q95.59-17.6 94.44-16.65 93.29-15.7 92.94-13.75L92.94-13.75 92.29-10.1Q92.19-9.6 92.19-9.15L92.19-9.15Q92.19-6.5 95.49-6.5L95.49-6.5Q96.59-6.5 97.47-7.2 98.34-7.9 98.49-8.75L98.49-8.75 106.79-8.65Q105.14 0.7 93.74 0.7ZM137.09-6.4L137.09-6.4Q138.24-6.4 139.14-6.9L139.14-6.9 138.89-1.25Q136.54 0.7 133.54 0.7L133.54 0.7Q126.74 0.7 126.74-5L126.74-5Q126.74-6 126.94-7.15L126.94-7.15 128.04-13.3Q128.19-14.2 128.19-15.1L128.19-15.1Q128.19-17.5 125.67-17.5 123.14-17.5 121.74-15.8L121.74-15.8 118.94 0 110.44 0 117.14-37.95 125.64-37.95 122.79-21.8Q125.54-24.75 129.69-24.75L129.69-24.75Q134.74-24.75 136.24-22.5L136.24-22.5Q137.29-21 137.29-19.15 137.29-17.3 136.99-15.75L136.99-15.75 135.64-8.3Q135.59-8 135.59-7.75L135.59-7.75Q135.59-6.4 137.09-6.4Z" opacity="1" transform="matrix(1,0,0,1,0,0)" fill="#6575a8" class="slogan-text-1" data-fill-palette-color="secondary" id="text-1"></path></svg></g></svg></g></svg></g></svg></g><g transform="matrix(1,0,0,1,92.08417487704348,0)"><svg viewBox="0 0 137.77132186823067 137.77132186823067" height="137.77132186823067" width="137.77132186823067"><g><svg></svg></g><g id="icon-0"><svg viewBox="0 0 137.77132186823067 137.77132186823067" height="137.77132186823067" width="137.77132186823067"><g><path d="M0 68.886c0-38.044 30.841-68.886 68.886-68.886 38.044 0 68.886 30.841 68.885 68.886 0 38.044-30.841 68.886-68.885 68.885-38.044 0-68.886-30.841-68.886-68.885zM68.886 115.616c25.809 0 46.731-20.922 46.73-46.73 0-25.809-20.922-46.731-46.73-46.731-25.809 0-46.731 20.922-46.731 46.731 0 25.809 20.922 46.731 46.731 46.73z" data-fill-palette-color="accent" fill="#e3c4e5" stroke="transparent"></path><ellipse rx="68.19680432477418" ry="68.19680432477418" cx="68.88566093411534" cy="68.88566093411534" fill="#e3c4e5" stroke="transparent" stroke-width="0" fill-opacity="1" data-fill-palette-color="accent"></ellipse></g><g transform="matrix(1,0,0,1,72.4028515908031,73.6510714526156)"><svg viewBox="0 0 -7.034381313375519 -9.530821037000528" height="-9.530821037000528" width="-7.034381313375519"><g><svg xmlns="http://www.w3.org/2000/svg" xmlns:xlink="http://www.w3.org/1999/xlink" version="1.1" x="0" y="0" viewBox="16.787 5 66.42599999999999 90.00000000000003" enable-background="new 0 0 100 100" xml:space="preserve" height="-9.530821037000528" width="-7.034381313375519" class="icon-cg-0" data-fill-palette-color="quaternary" id="cg-0"><path fill="none" d="M57.265 55.458l1.949-4.056c-2.641 2.56-5.808 4.056-9.213 4.056-3.408 0-6.574-1.496-9.215-4.056l1.948 4.056c-0.652-1.075-3.105-1.365-5.985-1.293 0.458 2.757 3.705 5.072 8.182 6.088l5.07 8.239 5.07-8.239c4.476-1.016 7.722-3.331 8.18-6.088C60.373 54.093 57.918 54.383 57.265 55.458z"></path><path d="M67.883 54.506c3.762 0.421 7.063 1.069 7.063 1.069-7.505-4.126-7.313-18.938-7.313-18.938 0.093-2.022 0.074-3.878-0.02-5.611h-2.97c-0.004 0.205-0.008 0.404-0.01 0.594-0.022 1.166-0.047 2.038-0.075 2.233-0.285 3.796-1.251 7.294-2.714 10.229-2.665 5.338-6.976 8.807-11.844 8.809-4.869-0.002-9.18-3.471-11.843-8.809-1.464-2.934-2.431-6.433-2.716-10.229-0.028-0.195-0.052-1.067-0.073-2.233-0.003-0.19-0.007-0.39-0.01-0.594h-2.971c-0.094 1.733-0.113 3.589-0.021 5.611 0 0 0.196 14.812-7.312 18.938 0 0 3.301-0.648 7.062-1.069-8.882 2.798-15.327 11.098-15.329 20.905 0 7.342 3.612 9.442 9.154 9.962 0.038-1.47 0.624-2.846 1.669-3.89 1.08-1.078 2.513-1.671 4.039-1.671h24.507c2.004-3.405 5.693-5.55 9.703-5.55h0.006 0.002c2.834 0 5.541 1.06 7.624 2.985l0.575 0.531v0.781 2.511l0.001 1.79h-1.79l-5.498-0.001-1.543 1.544 0.001 1.034c10.224 0.242 17.976 0.733 17.976-10.027C83.213 65.604 76.769 57.304 67.883 54.506zM55.071 60.253l-5.07 8.239-5.07-8.239c-4.477-1.016-7.724-3.331-8.182-6.088 2.88-0.072 5.333 0.218 5.985 1.293l-1.948-4.056c2.641 2.56 5.807 4.056 9.215 4.056 3.405 0 6.572-1.496 9.213-4.056l-1.949 4.056c0.653-1.075 3.108-1.365 5.986-1.293C62.793 56.922 59.547 59.237 55.071 60.253z" fill="#ffffff" data-fill-palette-color="quaternary"></path><path d="M32.218 28.49h0.381 2.727 2.45 24.452 2.449H67.4h0.381c1.387 0 2.509-1.124 2.509-2.509 0-1.384-1.122-2.508-2.509-2.508h-0.683c0-6.665-3.816-12.434-9.379-15.256l-0.501 2.838-0.916 5.197c-0.111 0.636-0.664 1.083-1.289 1.083-0.075 0-0.151-0.007-0.229-0.021-0.033-0.005-0.063-0.02-0.094-0.026-0.659-0.168-1.089-0.811-0.969-1.493l0.016-0.091 0.99-5.62 0.611-3.467C54.732 5.646 53.655 5 52.426 5h-4.853c-1.229 0-2.305 0.646-2.913 1.618l0.612 3.467 0.989 5.62 0.018 0.091c0.119 0.682-0.311 1.325-0.97 1.493-0.032 0.007-0.061 0.021-0.094 0.026-0.075 0.014-0.152 0.021-0.228 0.021-0.625 0-1.179-0.447-1.291-1.083l-0.916-5.197-0.5-2.836c-5.564 2.821-9.379 8.589-9.379 15.254h-0.684c-1.386 0-2.508 1.124-2.508 2.508C29.71 27.367 30.832 28.49 32.218 28.49z" fill="#ffffff" data-fill-palette-color="quaternary"></path><path d="M63.446 83.665l2.592-2.594 6.239 0.001-0.001-2.511c-1.684-1.557-3.937-2.509-6.409-2.509-0.004 0-0.007 0-0.01 0s-0.005 0-0.008 0c-3.828 0-7.123 2.277-8.609 5.549H31.649c-0.001 0-0.001 0-0.001 0-2.163 0-3.926 1.755-3.926 3.925 0.004 2.164 1.752 3.926 3.918 3.926 0.003 0 0.005 0 0.008 0l25.592-0.001c1.49 3.269 4.784 5.545 8.614 5.549 2.483-0.003 4.735-0.952 6.422-2.514l0.002-2.511-6.241-0.001-2.588-2.587L63.446 83.665zM31.651 87.423c-1.051-0.003-1.896-0.85-1.899-1.897 0.003-1.042 0.851-1.895 1.898-1.899 1.048 0.003 1.896 0.851 1.892 1.901C33.544 86.574 32.695 87.422 31.651 87.423z" fill="#ffffff" data-fill-palette-color="quaternary"></path></svg></g></svg></g></svg></g></svg></g><g></g></svg></g><defs></defs></svg><rect width="122.67011863251159" height="247.2" fill="none" stroke="none" visibility="hidden"></rect></g></svg></g></svg>