<svg xmlns="http://www.w3.org/2000/svg" version="1.1" xmlns:xlink="http://www.w3.org/1999/xlink" xmlns:svgjs="http://svgjs.dev/svgjs" width="2000" height="1500" viewBox="0 0 2000 1500"><rect width="2000" height="1500" fill="#ffffff"></rect><g transform="matrix(0.75,0,0,0.75,249.090909090909,282.7536437246963)"><svg viewBox="0 0 396 247" data-background-color="#ffffff" preserveAspectRatio="xMidYMid meet" height="1247" width="2000" xmlns="http://www.w3.org/2000/svg" xmlns:xlink="http://www.w3.org/1999/xlink"><g id="tight-bounds" transform="matrix(1,0,0,1,0.2400000000000091,-0.09999999999999432)"><svg viewBox="0 0 395.52 247.2" height="247.2" width="395.52"><g><svg></svg></g><g><svg viewBox="0 0 395.52 247.2" height="247.2" width="395.52"><g transform="matrix(1,0,0,1,75.54432,94.58561860465116)"><svg viewBox="0 0 244.43135999999998 58.02876279069766" height="58.02876279069766" width="244.43135999999998"><g><svg viewBox="0 0 244.43135999999998 58.02876279069766" height="58.02876279069766" width="244.43135999999998"><g><svg viewBox="0 0 244.43135999999998 58.02876279069766" height="58.02876279069766" width="244.43135999999998"><g><svg viewBox="0 0 244.43135999999998 58.02876279069766" height="58.02876279069766" width="244.43135999999998"><g id="textblocktransform"><svg viewBox="0 0 244.43135999999998 58.02876279069766" height="58.02876279069766" width="244.43135999999998" id="textblock"><g><svg viewBox="0 0 244.43135999999998 58.02876279069766" height="58.02876279069766" width="244.43135999999998"><g transform="matrix(1,0,0,1,0,0)"><svg width="244.43135999999998" viewBox="3.5 -36.25 154.78 36.75" height="58.02876279069766" data-palette-color="#0f172a"><path d="M3.5 0L3.5-33.85 9.45-33.85 9.45 0 3.5 0ZM13.45-33.85L37.05-33.85 36.3-29.35 27.9-29.35 27.9 0 22 0 22-29.35 13.45-29.35 13.45-33.85ZM50.84-33.85L74.44-33.85 73.69-29.35 65.29-29.35 65.29 0 59.39 0 59.39-29.35 50.84-29.35 50.84-33.85ZM84.14-25.5Q89.89-25.5 92.49-22.1 95.09-18.7 95.09-12.75L95.09-12.75Q95.09-9.95 94.39-7.53 93.69-5.1 92.27-3.33 90.84-1.55 88.69-0.53 86.54 0.5 83.69 0.5L83.69 0.5Q80.84 0.5 78.77-0.38 76.69-1.25 75.34-2.9 73.99-4.55 73.37-6.9 72.74-9.25 72.74-12.2L72.74-12.2Q72.74-15.05 73.44-17.48 74.14-19.9 75.57-21.68 76.99-23.45 79.14-24.48 81.29-25.5 84.14-25.5L84.14-25.5ZM83.64-21.3Q82.19-21.3 81.27-20.65 80.34-20 79.82-18.82 79.29-17.65 79.09-16.07 78.89-14.5 78.89-12.7L78.89-12.7Q78.89-10.85 79.12-9.2 79.34-7.55 79.94-6.33 80.54-5.1 81.57-4.4 82.59-3.7 84.19-3.7L84.19-3.7Q85.64-3.7 86.57-4.35 87.49-5 88.02-6.18 88.54-7.35 88.74-8.9 88.94-10.45 88.94-12.25L88.94-12.25Q88.94-14.1 88.72-15.75 88.49-17.4 87.89-18.65 87.29-19.9 86.27-20.6 85.24-21.3 83.64-21.3L83.64-21.3ZM111.24-19.7Q110.34-19.7 109.44-19.25 108.54-18.8 107.84-18.03 107.14-17.25 106.69-16.15 106.24-15.05 106.24-13.7L106.24-13.7 106.24 0 100.54 0 100.54-12.6Q100.54-15.6 100.14-17.63 99.74-19.65 99.29-20.9L99.29-20.9Q98.74-22.35 98.09-23.25L98.09-23.25 102.59-25.05Q103.04-24.5 103.54-23.7L103.54-23.7Q103.94-23 104.34-22.05 104.74-21.1 104.99-19.8L104.99-19.8Q105.99-22.7 107.89-23.98 109.79-25.25 112.19-25.25L112.19-25.25Q113.34-25.25 114.34-24.98 115.34-24.7 115.29-24.7L115.29-24.7 113.69-19.15Q113.74-19.15 113.11-19.43 112.49-19.7 111.24-19.7L111.24-19.7ZM133.74-22.1L130.54-19.05Q129.79-19.9 129.01-20.5 128.24-21.1 126.94-21.1L126.94-21.1Q126.19-21.1 125.26-20.88 124.34-20.65 123.54-19.78 122.74-18.9 122.21-17.2 121.69-15.5 121.69-12.6L121.69-12.6Q121.69-9.65 122.21-7.93 122.74-6.2 123.56-5.25 124.39-4.3 125.34-4.03 126.29-3.75 127.19-3.75L127.19-3.75Q127.89-3.75 128.64-3.88 129.39-4 130.09-4.17 130.79-4.35 131.31-4.5 131.84-4.65 132.09-4.75L132.09-4.75 133.49-1.15Q133.34-1.1 132.81-0.85 132.29-0.6 131.39-0.35 130.49-0.1 129.24 0.13 127.99 0.35 126.44 0.35L126.44 0.35Q123.54 0.35 121.49-0.53 119.44-1.4 118.11-3 116.79-4.6 116.16-6.85 115.54-9.1 115.54-11.85L115.54-11.85Q115.54-15.15 116.41-17.7 117.29-20.25 118.84-21.98 120.39-23.7 122.49-24.6 124.59-25.5 126.99-25.5L126.99-25.5Q129.34-25.5 130.96-24.6 132.59-23.7 133.74-22.1L133.74-22.1ZM143.23-36.25L143.23-21.7Q144.68-23.6 146.71-24.45 148.73-25.3 150.98-25.3L150.98-25.3Q154.83-25.3 156.56-22.98 158.28-20.65 158.28-16.7L158.28-16.7 158.28 0 152.58 0 152.58-16.3Q152.58-18.4 151.83-19.63 151.08-20.85 149.28-20.85L149.28-20.85Q148.23-20.85 147.16-20.3 146.08-19.75 145.21-18.73 144.33-17.7 143.78-16.3 143.23-14.9 143.23-13.2L143.23-13.2 143.23 0 137.53 0 137.53-35.25 143.23-36.25Z" opacity="1" transform="matrix(1,0,0,1,0,0)" fill="#0f172a" class="wordmark-text-0" data-fill-palette-color="primary" id="text-0"></path></svg></g></svg></g></svg></g></svg></g></svg></g></svg></g></svg></g><path d="M198.393 88.586L198.393 29.507 386.578 29.507 386.578 217.693 198.393 217.693 198.393 158.614 203.626 158.614 203.626 212.459 381.345 212.459 381.345 34.741 203.626 34.741 203.626 88.586Z" fill="#097859" stroke="transparent" data-fill-palette-color="tertiary"></path></svg></g><defs></defs></svg><rect width="395.52" height="247.2" fill="none" stroke="none" visibility="hidden"></rect></g></svg></g></svg>